<svg width="1511" height="406" viewBox="0 0 1511 406" fill="none" xmlns="http://www.w3.org/2000/svg">
<path d="M600.718 132.349H648.064L563.14 332.696H515.794L428.609 132.349H476.339L539.098 277.002L600.718 132.349Z" fill="white"/>
<path d="M685.272 121.516C680.514 121.516 676.184 120.399 672.313 118.15C668.427 115.901 665.368 112.859 663.107 108.993C660.846 105.127 659.723 100.952 659.723 96.4693C659.723 89.502 662.22 83.5195 667.244 78.5219C672.254 73.5389 678.194 71.0401 685.095 71.0401C691.996 71.0401 697.936 73.5389 702.946 78.5219C707.955 83.5048 710.467 89.4285 710.467 96.2782C710.467 103.128 707.955 109.052 702.946 114.035C697.936 119.017 692.055 121.516 685.287 121.516H685.272ZM706.684 332.711H663.092V132.349H706.684V332.711Z" fill="white"/>
<path d="M824.679 291.583C831.684 291.583 838.333 290.084 844.599 287.1C850.864 284.116 856.302 280.001 860.942 274.768C865.582 269.535 869.143 263.552 871.655 256.82H917.125C912.366 279.501 901.343 298.183 884.053 312.882C866.764 327.596 846.978 334.931 824.679 334.931C798.627 334.931 776.329 325.215 757.798 305.768C739.253 286.336 729.988 262.788 729.988 235.125C729.988 207.461 739.253 183.913 757.798 164.481C776.329 145.049 798.627 135.333 824.679 135.333C846.978 135.333 866.764 142.683 884.053 157.382C901.343 172.081 912.366 190.778 917.125 213.444H871.655C869.143 206.712 865.582 200.729 860.942 195.496C856.302 190.263 850.849 186.148 844.599 183.164C838.333 180.18 831.698 178.681 824.679 178.681C815.414 178.681 806.888 181.238 799.13 186.339C791.357 191.454 785.224 198.304 780.717 206.903C776.21 215.501 773.95 224.909 773.95 235.125C773.95 245.34 776.21 254.748 780.717 263.347C785.224 271.946 791.357 278.795 799.13 283.91C806.888 289.026 815.414 291.569 824.679 291.569V291.583Z" fill="white"/>
<path d="M1117.78 247.486H974.238C976.986 260.451 983.075 271.093 992.458 279.442C1001.86 287.791 1012.55 291.965 1024.58 291.965C1033.85 291.965 1042.3 289.54 1049.94 284.675C1057.58 279.809 1063.79 273.268 1068.55 265.052H1114.01C1107.75 285.233 1096.47 301.681 1080.19 314.396C1063.91 327.111 1045.36 333.461 1024.57 333.461C998.768 333.461 976.72 323.803 958.426 304.489C940.132 285.175 931 261.877 931 234.595C931 207.314 940.147 184.016 958.426 164.702C976.706 145.387 998.753 135.73 1024.57 135.73C1045.36 135.73 1063.89 142.08 1080.19 154.795C1096.47 167.509 1107.75 183.943 1114.01 204.139C1117.01 213.855 1118.52 223.953 1118.52 234.419C1118.52 238.902 1118.27 243.268 1117.77 247.501L1117.78 247.486ZM981.006 204.124H1068.56C1065.56 198.642 1061.79 193.909 1057.28 189.925C1052.78 185.942 1047.75 182.826 1042.26 180.577C1036.74 178.328 1030.85 177.211 1024.6 177.211C1015.58 177.211 1007.25 179.636 999.61 184.501C991.97 189.367 985.764 195.908 981.006 204.124Z" fill="white"/>
<path d="M1141.07 132.349H1242.15V176.079H1184.28V332.696H1141.07V132.349Z" fill="white"/>
<path d="M1319.83 289.349H1337.12V333.078H1319.83C1304.3 333.078 1291.01 327.596 1280 316.63C1268.98 305.665 1263.47 292.465 1263.47 277.002V90.869H1307.43V132.335H1336V176.064H1307.43V277.017C1307.43 279.266 1307.99 281.309 1309.12 283.19C1310.24 285.057 1311.75 286.556 1313.62 287.673C1315.5 288.791 1317.57 289.349 1319.83 289.349Z" fill="white"/>
<path d="M1455.01 132.349C1470.54 132.349 1483.75 137.832 1494.66 148.798C1505.55 159.763 1511 172.845 1511 188.044V328.963H1467.41V320.364C1455.13 328.345 1441.73 332.329 1427.2 332.329C1407.9 332.329 1391.36 325.538 1377.59 311.956C1363.81 298.374 1356.92 281.926 1356.92 262.612C1356.92 243.297 1363.81 226.79 1377.59 213.091C1391.36 199.391 1407.9 192.527 1427.2 192.527H1467.41V188.044C1467.41 184.81 1466.21 182.003 1463.83 179.636C1461.45 177.269 1458.51 176.079 1454.99 176.079H1356.92V132.349H1455.01ZM1427.2 288.967C1433.46 288.967 1439.04 287.35 1443.93 284.102C1448.82 280.868 1452.69 276.443 1455.57 270.828C1458.45 265.228 1460.77 259.613 1462.52 254.013C1464.26 248.412 1465.52 242.489 1466.27 236.256H1427.18C1419.91 236.256 1413.66 238.814 1408.4 243.915C1403.14 249.03 1400.51 255.189 1400.51 262.421C1400.51 269.652 1403.14 275.87 1408.4 281.103C1413.66 286.336 1419.93 288.952 1427.18 288.952L1427.2 288.967Z" fill="white"/>
<path d="M324.845 85.6215V41.113C324.845 18.4031 306.359 0 283.558 0H56.7447C41.2287 0 26.7324 6.11477 15.9452 17.2419C5.54212 27.9427 -0.0731654 41.9361 0.000719909 56.7968V348.939C0.000719909 380.453 25.6537 406 57.2914 406H315.092C346.73 406 372.383 380.453 372.383 348.939V132.967C372.383 106.817 351.104 85.6215 324.845 85.6215ZM27.5304 56.5175C27.5304 48.8153 30.5006 41.5687 35.9533 36.0713C41.539 30.4269 49.2822 27.4136 57.2323 27.4136H283.558C291.153 27.4136 297.315 33.543 297.315 41.113V85.6215H57.2619C41.3913 85.6215 28.0624 73.0244 27.5304 57.5317C27.5304 57.2231 27.5156 56.9291 27.5156 56.6204V56.5028L27.5304 56.5175ZM57.2914 378.586C40.8445 378.586 27.5304 365.313 27.5304 348.939V104.804C36.4262 110.169 46.6667 113.035 57.2766 113.035H297.33V378.586H57.2914Z" fill="white"/>
<path d="M210.648 168.362H247.251L181.581 323.274H144.979L77.5655 168.362H114.464L162.992 280.206L210.648 168.362Z" fill="white"/>
</svg>
